<svg width="368" height="378" viewBox="0 0 368 378" fill="none" xmlns="http://www.w3.org/2000/svg">
<path fill-rule="evenodd" clip-rule="evenodd" d="M192.483 81.7535L41.5256 177.983C26.1572 187.78 21.6405 208.181 31.4373 223.549L43.2967 242.153C43.4832 242.445 43.6734 242.734 43.8674 243.019C58.747 233.544 78.4902 237.915 87.9797 252.785C88.2757 252.609 88.57 252.428 88.8624 252.241L239.82 156.011C239.693 155.836 239.572 155.656 239.454 155.471C235.968 150.003 237.575 142.744 243.043 139.258C248.512 135.773 255.77 137.38 259.256 142.848C259.374 143.032 259.486 143.219 259.592 143.407L292.836 122.215C293.129 122.029 293.417 121.838 293.702 121.645C284.227 106.765 288.598 87.0217 303.468 77.5322C303.292 77.2362 303.111 76.9419 302.924 76.6495L291.065 58.0455C281.268 42.6771 260.868 38.1604 245.499 47.9572L212.255 69.1495C215.292 74.5438 213.613 81.4344 208.33 84.8025C203.046 88.1706 196.091 86.7839 192.483 81.7535ZM231.823 121.656C237.291 118.171 238.898 110.912 235.412 105.444C231.926 99.9756 224.668 98.3685 219.2 101.854C213.731 105.34 212.124 112.599 215.61 118.067C219.096 123.535 226.355 125.142 231.823 121.656Z" fill="#CACACA"/>
<path fill-rule="evenodd" clip-rule="evenodd" d="M287.156 230.269L136.199 326.499C120.831 336.296 100.43 331.779 90.6336 316.411L78.7741 297.807C78.5877 297.515 78.4065 297.22 78.2304 296.924C93.1008 287.435 97.4719 267.692 87.9969 252.812C88.2815 252.618 88.57 252.428 88.8624 252.241L239.82 156.011C239.926 156.2 240.038 156.386 240.155 156.571C243.641 162.039 250.9 163.646 256.368 160.161C261.836 156.675 263.443 149.416 259.957 143.948C259.84 143.763 259.718 143.583 259.592 143.407L292.836 122.215C293.129 122.029 293.423 121.848 293.719 121.671C303.208 136.542 322.952 140.913 337.831 131.438C338.025 131.722 338.215 132.011 338.402 132.303L350.261 150.907C360.058 166.276 355.541 186.676 340.173 196.473L306.928 217.665C303.32 212.635 296.365 211.248 291.081 214.616C285.798 217.984 284.119 224.875 287.156 230.269ZM267.588 177.762C273.057 174.277 280.315 175.884 283.801 181.352C287.287 186.82 285.68 194.079 280.212 197.565C274.743 201.05 267.485 199.443 263.999 193.975C260.513 188.507 262.12 181.248 267.588 177.762Z" fill="#CACACA"/>
<path fill-rule="evenodd" clip-rule="evenodd" d="M178.784 76.535L27.8269 172.765C12.4585 182.562 7.9419 202.962 17.7387 218.33L29.5981 236.935C29.7845 237.227 29.9748 237.515 30.1688 237.8C45.0484 228.325 64.7916 232.696 74.2811 247.566C74.5771 247.39 74.8713 247.209 75.1638 247.023L226.121 150.793C225.995 150.617 225.873 150.437 225.755 150.252C222.269 144.784 223.877 137.526 229.345 134.04C234.813 130.554 242.072 132.161 245.557 137.629C245.675 137.814 245.787 138 245.893 138.189L279.138 116.997C279.43 116.81 279.719 116.62 280.003 116.426C270.528 101.546 274.899 81.8032 289.77 72.3136C289.593 72.0177 289.412 71.7234 289.226 71.431L277.366 52.8269C267.57 37.4585 247.169 32.9419 231.801 42.7387L198.556 63.9309C201.593 69.3252 199.915 76.2158 194.631 79.584C189.347 82.9521 182.392 81.5654 178.784 76.535ZM218.124 116.438C223.592 112.952 225.199 105.693 221.714 100.225C218.228 94.757 210.969 93.15 205.501 96.6358C200.033 100.122 198.426 107.38 201.912 112.848C205.397 118.317 212.656 119.924 218.124 116.438Z" fill="#64B3C5"/>
<path fill-rule="evenodd" clip-rule="evenodd" d="M273.458 225.051L122.501 321.281C107.132 331.078 86.7317 326.561 76.9349 311.192L65.0755 292.588C64.8891 292.296 64.7079 292.002 64.5318 291.706C79.4022 282.216 83.7733 262.473 74.2983 247.593C74.5828 247.399 74.8714 247.209 75.1638 247.023L226.121 150.793C226.227 150.981 226.339 151.168 226.457 151.353C229.942 156.821 237.201 158.428 242.669 154.942C248.137 151.456 249.744 144.198 246.259 138.729C246.141 138.545 246.019 138.365 245.893 138.189L279.138 116.997C279.43 116.81 279.724 116.629 280.02 116.453C289.51 131.323 309.253 135.694 324.133 126.219C324.327 126.504 324.517 126.792 324.703 127.085L336.563 145.689C346.359 161.057 341.843 181.458 326.474 191.255L293.23 212.447C289.622 207.416 282.666 206.03 277.383 209.398C272.099 212.766 270.42 219.657 273.458 225.051ZM253.89 172.544C259.358 169.058 266.617 170.665 270.102 176.133C273.588 181.602 271.981 188.86 266.513 192.346C261.045 195.832 253.786 194.225 250.3 188.757C246.815 183.288 248.422 176.03 253.89 172.544Z" fill="#E2E2E2"/>
<path d="M100.903 301.792L99.6553 299.316L109.302 293.241L110.549 295.717L106.824 297.638L110.963 304.391L114.532 309.517L111.689 311.308L108.825 306.219L104.318 299.244L100.903 301.792ZM115.522 294.457L118.463 299.667L121.692 304.299L119.291 306.52L116.427 301.432L113.121 296.678L115.522 294.457ZM110.792 293.295C110.502 292.835 110.422 292.318 110.552 291.744C110.674 291.157 110.965 290.718 111.426 290.428C111.886 290.138 112.319 290.045 112.725 290.149C113.122 290.239 113.478 290.535 113.794 291.036C114.109 291.537 114.206 292.081 114.084 292.668C113.967 293.233 113.679 293.661 113.218 293.951C112.772 294.232 112.326 294.305 111.881 294.169C111.436 294.033 111.073 293.742 110.792 293.295ZM122.838 293.367C122.242 293.742 121.919 294.248 121.866 294.886C121.806 295.51 122.053 296.263 122.607 297.143C123.161 298.023 123.771 298.631 124.437 298.968C125.108 299.283 125.762 299.24 126.398 298.839C126.723 298.635 126.977 298.333 127.161 297.933C127.344 297.534 127.453 297.182 127.488 296.877L127.507 296.411L129.187 296.828C129.189 296.921 129.195 297.05 129.204 297.214C129.226 297.37 129.214 297.681 129.166 298.145C129.132 298.602 129.056 299.037 128.939 299.451C128.827 299.843 128.625 300.273 128.333 300.741C128.033 301.194 127.652 301.566 127.192 301.856C126.177 302.496 125.091 302.603 123.934 302.178C122.778 301.753 121.782 300.877 120.946 299.55C119.906 297.898 119.474 296.147 119.651 294.296C119.828 292.445 120.56 291.114 121.846 290.304C122.238 290.057 122.669 289.871 123.139 289.745C123.6 289.606 124.11 289.531 124.669 289.519L124.821 292.912C124.095 292.84 123.434 292.991 122.838 293.367ZM138.547 294.677L131.186 291.456L131.276 291.598L134.505 296.23L132.083 298.464L129.219 293.376L122.504 283.253L124.966 280.993L130.88 290.968L132.14 283.963L134.868 284.06L133.411 289.629L139.89 291.675L138.547 294.677ZM144.231 287.92C144.624 287.673 144.973 287.312 145.278 286.836C145.584 286.36 145.794 285.944 145.91 285.587L146.084 285.052L147.734 285.601C147.744 285.917 147.7 286.313 147.603 286.79C147.506 287.266 147.377 287.707 147.216 288.111C147.06 288.493 146.793 288.926 146.417 289.409C146.045 289.87 145.602 290.262 145.087 290.586C143.991 291.277 142.837 291.427 141.627 291.036C140.407 290.631 139.384 289.772 138.557 288.459C137.517 286.807 137.085 285.056 137.262 283.205C137.439 281.354 138.171 280.023 139.457 279.213C140.445 278.591 141.385 278.387 142.276 278.601C143.181 278.806 143.949 279.41 144.579 280.412C144.955 281.008 145.279 281.749 145.554 282.635L145.416 283.317L140.633 286.981C141.827 288.366 143.026 288.679 144.231 287.92ZM140.266 281.625C139.671 282 139.323 282.559 139.224 283.302C139.116 284.032 139.263 284.791 139.664 285.578L142.848 282.977C142.693 282.64 142.551 282.37 142.423 282.167C141.852 281.26 141.133 281.079 140.266 281.625ZM145.545 276.258L144.151 274.045L146.561 271.79L148.023 274.698L150.48 273.15L151.306 274.956L148.991 276.414L151.562 280.723C151.963 281.359 152.292 281.747 152.551 281.887C152.8 282.013 153.088 281.974 153.413 281.77C153.738 281.565 154.124 281.218 154.572 280.728L155.602 282.093C155.177 283.4 154.626 284.267 153.949 284.693C153.272 285.12 152.564 285.226 151.824 285.011C151.075 284.783 150.449 284.269 149.946 283.471L148.635 281.119L146.594 277.923L145.193 278.806L144.368 277L145.545 276.258ZM161.976 272.094L160.818 272.823L160.895 272.945L164.464 278.071L161.743 279.785L158.879 274.697L152.918 265.772L157.325 262.997C158.625 262.179 159.882 261.878 161.097 262.096C162.312 262.314 163.286 263.006 164.02 264.17C164.574 265.05 164.851 266 164.851 267.021C164.856 268.02 164.605 268.973 164.098 269.878L170.778 272.649L169.113 275.455L162.39 271.805C162.303 271.878 162.166 271.974 161.976 272.094ZM157.886 265.509L156.891 266.135L159.639 270.815L161.02 269.945C161.697 269.519 162.077 268.967 162.161 268.29C162.259 267.604 162.048 266.849 161.528 266.023C160.684 264.682 159.47 264.511 157.886 265.509ZM175.408 268.287C175.8 268.039 176.149 267.678 176.455 267.202C176.76 266.726 176.97 266.31 177.086 265.953L177.26 265.418L178.91 265.967C178.92 266.283 178.876 266.679 178.78 267.156C178.683 267.633 178.554 268.073 178.392 268.477C178.236 268.859 177.969 269.292 177.593 269.775C177.221 270.236 176.778 270.628 176.264 270.952C175.167 271.643 174.014 271.793 172.803 271.402C171.584 270.997 170.561 270.138 169.734 268.825C168.694 267.173 168.262 265.422 168.439 263.571C168.616 261.72 169.347 260.389 170.633 259.579C171.622 258.957 172.561 258.753 173.452 258.967C174.357 259.172 175.125 259.776 175.756 260.778C176.131 261.374 176.456 262.115 176.73 263.001L176.593 263.683L171.81 267.347C173.003 268.732 174.203 269.045 175.408 268.287ZM171.443 261.991C170.847 262.366 170.5 262.925 170.4 263.668C170.293 264.398 170.439 265.157 170.841 265.944L174.025 263.343C173.869 263.006 173.727 262.736 173.599 262.533C173.028 261.626 172.309 261.445 171.443 261.991ZM183.997 263.132C184.701 262.689 184.857 262.156 184.465 261.533C184.328 261.316 184.045 261.211 183.614 261.218C183.197 261.216 182.705 261.261 182.139 261.353C181.586 261.436 181.014 261.503 180.423 261.555C179.836 261.584 179.255 261.486 178.679 261.263C178.117 261.031 177.665 260.644 177.324 260.102C176.753 259.195 176.653 258.152 177.026 256.972C177.398 255.792 178.106 254.873 179.148 254.217C179.636 253.91 180.148 253.672 180.685 253.504C181.227 253.314 181.791 253.205 182.378 253.176L182.578 256.51C182.432 256.489 182.246 256.464 182.02 256.436C181.795 256.408 181.412 256.431 180.873 256.506C180.339 256.558 179.91 256.687 179.585 256.892C179.273 257.088 179.077 257.316 178.994 257.576C178.917 257.813 178.96 258.061 179.122 258.318C179.275 258.562 179.663 258.667 180.285 258.635C180.913 258.58 181.572 258.486 182.264 258.353C182.947 258.206 183.672 258.232 184.439 258.43C185.211 258.605 185.806 259.024 186.224 259.688C186.821 260.635 186.953 261.715 186.619 262.927C186.3 264.131 185.632 265.053 184.616 265.692C183.967 266.101 183.268 266.343 182.52 266.417C181.786 266.482 181.208 266.449 180.785 266.318L180.151 266.122L180.578 263.243C180.728 263.3 180.928 263.363 181.179 263.432C181.431 263.501 181.858 263.534 182.462 263.532C183.079 263.521 183.591 263.388 183.997 263.132ZM192.463 257.545C192.856 257.298 193.205 256.936 193.51 256.46C193.816 255.985 194.026 255.568 194.142 255.212L194.316 254.677L195.966 255.226C195.976 255.541 195.932 255.937 195.835 256.414C195.739 256.891 195.61 257.332 195.448 257.736C195.292 258.118 195.025 258.551 194.649 259.034C194.277 259.495 193.834 259.887 193.32 260.211C192.223 260.902 191.069 261.051 189.859 260.66C188.64 260.256 187.617 259.397 186.79 258.084C185.749 256.432 185.318 254.681 185.494 252.83C185.671 250.979 186.403 249.648 187.689 248.838C188.677 248.216 189.617 248.012 190.508 248.226C191.413 248.431 192.181 249.035 192.812 250.037C193.187 250.632 193.512 251.373 193.786 252.259L193.648 252.942L188.866 256.606C190.059 257.991 191.258 258.304 192.463 257.545ZM188.499 251.25C187.903 251.625 187.555 252.184 187.456 252.927C187.349 253.657 187.495 254.415 187.897 255.203L191.08 252.602C190.925 252.265 190.783 251.995 190.655 251.792C190.084 250.885 189.365 250.704 188.499 251.25ZM192.775 246.543L194.9 244.467C195.678 245.433 196.382 246.37 197.011 247.279C197.041 244.594 197.597 242.91 198.68 242.228L200.452 245.537C199.667 246.032 199.091 246.498 198.724 246.937C198.363 247.354 198.077 247.921 197.868 248.639L198.328 249.371L201.557 254.002L199.156 256.224L196.291 251.135C195.095 249.355 193.923 247.824 192.775 246.543ZM208.268 246.939L208.532 246.773L207.45 243.569L205.388 237.862L208.098 236.581L209.747 242.577L211.46 248.134L208.179 250.626L203.873 246.446L199.303 242.432L201.745 240.185L205.432 244.102L208.268 246.939ZM218.107 241.396C218.499 241.149 218.848 240.787 219.154 240.311C219.459 239.835 219.669 239.419 219.785 239.062L219.959 238.528L221.609 239.077C221.619 239.392 221.575 239.788 221.479 240.265C221.382 240.742 221.253 241.183 221.091 241.587C220.935 241.969 220.668 242.401 220.292 242.884C219.92 243.345 219.477 243.738 218.963 244.062C217.866 244.752 216.713 244.902 215.502 244.511C214.283 244.107 213.26 243.248 212.433 241.934C211.393 240.283 210.961 238.531 211.138 236.68C211.315 234.829 212.046 233.499 213.332 232.689C214.321 232.066 215.26 231.862 216.151 232.076C217.056 232.282 217.824 232.886 218.455 233.887C218.83 234.483 219.155 235.224 219.429 236.11L219.292 236.792L214.509 240.457C215.702 241.842 216.902 242.155 218.107 241.396ZM214.142 235.1C213.546 235.476 213.199 236.035 213.099 236.778C212.992 237.508 213.138 238.266 213.54 239.053L216.724 236.453C216.568 236.116 216.426 235.846 216.298 235.643C215.727 234.735 215.008 234.555 214.142 235.1Z" fill="#484848"/>
<rect x="44" y="183.166" width="146" height="10.1385" rx="5" transform="rotate(-32.8359 44 183.166)" fill="white"/>
<rect x="54" y="197.93" width="47.1772" height="10.1385" rx="5" transform="rotate(-32.8359 54 197.93)" fill="white"/>
<rect x="99" y="169.345" width="68.8726" height="10.1385" rx="5" transform="rotate(-32.8359 99 169.345)" fill="white"/>
<rect x="62" y="213.165" width="92.5151" height="10.1385" rx="5" transform="rotate(-32.8359 62 213.165)" fill="white"/>
<ellipse cx="184" cy="366" rx="170" ry="12" fill="#656565"/>
<circle cx="240" cy="39" r="39" fill="#58D264"/>
<circle cx="240" cy="39" r="33" stroke="white" stroke-width="2"/>
<path d="M217.156 45.3601L233.278 53.9148L257.959 21.569L235.013 62.8244L217.156 45.3601Z" fill="white"/>
</svg>
