<svg id="visual" viewBox="0 0 900 600" width="900" height="600" xmlns="http://www.w3.org/2000/svg" xmlns:xlink="http://www.w3.org/1999/xlink" version="1.1"><g stroke-width="1" stroke-linejoin="bevel"><path d="M388 277L416 205L296 185Z" fill="#15384f" stroke="#15384f"></path><path d="M416 205L320 130L296 185Z" fill="#15384f" stroke="#15384f"></path><path d="M416 205L400 123L320 130Z" fill="#297ea6" stroke="#297ea6"></path><path d="M296 185L267 304L388 277Z" fill="#1d4e6b" stroke="#1d4e6b"></path><path d="M222 99L200 164L296 185Z" fill="#205a7a" stroke="#205a7a"></path><path d="M296 185L200 164L267 304Z" fill="#246688" stroke="#246688"></path><path d="M205 317L277 374L267 304Z" fill="#1d4e6b" stroke="#1d4e6b"></path><path d="M267 304L277 374L388 277Z" fill="#0c2435" stroke="#0c2435"></path><path d="M200 164L205 317L267 304Z" fill="#246688" stroke="#246688"></path><path d="M330 0L222 99L320 130Z" fill="#205a7a" stroke="#205a7a"></path><path d="M320 130L222 99L296 185Z" fill="#081a28" stroke="#081a28"></path><path d="M277 374L384 399L388 277Z" fill="#1d4e6b" stroke="#1d4e6b"></path><path d="M539 274L537 212L416 205Z" fill="#1d4e6b" stroke="#1d4e6b"></path><path d="M539 274L416 205L388 277Z" fill="#0c2435" stroke="#0c2435"></path><path d="M416 205L513 115L400 123Z" fill="#112e42" stroke="#112e42"></path><path d="M537 212L513 115L416 205Z" fill="#112e42" stroke="#112e42"></path><path d="M400 123L371 0L320 130Z" fill="#0c2435" stroke="#0c2435"></path><path d="M562 360L539 274L388 277Z" fill="#205a7a" stroke="#205a7a"></path><path d="M510 0L371 0L400 123Z" fill="#0c2435" stroke="#0c2435"></path><path d="M371 0L330 0L320 130Z" fill="#297ea6" stroke="#297ea6"></path><path d="M205 317L230 422L277 374Z" fill="#0c2435" stroke="#0c2435"></path><path d="M277 374L364 497L384 399Z" fill="#15384f" stroke="#15384f"></path><path d="M384 399L562 360L388 277Z" fill="#15384f" stroke="#15384f"></path><path d="M618 162L590 134L537 212Z" fill="#0c2435" stroke="#0c2435"></path><path d="M537 212L590 134L513 115Z" fill="#205a7a" stroke="#205a7a"></path><path d="M513 115L510 0L400 123Z" fill="#112e42" stroke="#112e42"></path><path d="M618 162L537 212L539 274Z" fill="#1d4e6b" stroke="#1d4e6b"></path><path d="M109 108L96 201L200 164Z" fill="#0c2435" stroke="#0c2435"></path><path d="M200 164L96 201L205 317Z" fill="#277297" stroke="#277297"></path><path d="M205 317L77 369L230 422Z" fill="#205a7a" stroke="#205a7a"></path><path d="M109 108L200 164L222 99Z" fill="#297ea6" stroke="#297ea6"></path><path d="M330 0L208 0L222 99Z" fill="#00101c" stroke="#00101c"></path><path d="M208 0L109 108L222 99Z" fill="#205a7a" stroke="#205a7a"></path><path d="M619 0L510 0L513 115Z" fill="#205a7a" stroke="#205a7a"></path><path d="M621 321L618 162L539 274Z" fill="#297ea6" stroke="#297ea6"></path><path d="M590 134L619 0L513 115Z" fill="#112e42" stroke="#112e42"></path><path d="M230 422L364 497L277 374Z" fill="#081a28" stroke="#081a28"></path><path d="M384 399L531 431L562 360Z" fill="#297ea6" stroke="#297ea6"></path><path d="M474 507L531 431L384 399Z" fill="#00101c" stroke="#00101c"></path><path d="M661 391L621 321L562 360Z" fill="#297ea6" stroke="#297ea6"></path><path d="M562 360L621 321L539 274Z" fill="#297ea6" stroke="#297ea6"></path><path d="M96 201L84 339L205 317Z" fill="#112e42" stroke="#112e42"></path><path d="M364 497L474 507L384 399Z" fill="#19435d" stroke="#19435d"></path><path d="M531 431L661 391L562 360Z" fill="#1d4e6b" stroke="#1d4e6b"></path><path d="M0 313L77 369L84 339Z" fill="#15384f" stroke="#15384f"></path><path d="M84 339L77 369L205 317Z" fill="#19435d" stroke="#19435d"></path><path d="M230 422L300 532L364 497Z" fill="#246688" stroke="#246688"></path><path d="M160 534L300 532L230 422Z" fill="#277297" stroke="#277297"></path><path d="M364 497L401 600L474 507Z" fill="#112e42" stroke="#112e42"></path><path d="M671 0L590 134L734 128Z" fill="#246688" stroke="#246688"></path><path d="M671 0L619 0L590 134Z" fill="#081a28" stroke="#081a28"></path><path d="M208 0L78 0L109 108Z" fill="#19435d" stroke="#19435d"></path><path d="M109 108L0 198L96 201Z" fill="#277297" stroke="#277297"></path><path d="M96 201L0 313L84 339Z" fill="#1d4e6b" stroke="#1d4e6b"></path><path d="M0 70L0 198L109 108Z" fill="#112e42" stroke="#112e42"></path><path d="M606 494L661 391L531 431Z" fill="#205a7a" stroke="#205a7a"></path><path d="M621 321L725 223L618 162Z" fill="#112e42" stroke="#112e42"></path><path d="M77 369L102 473L230 422Z" fill="#081a28" stroke="#081a28"></path><path d="M0 424L102 473L77 369Z" fill="#19435d" stroke="#19435d"></path><path d="M661 391L699 317L621 321Z" fill="#246688" stroke="#246688"></path><path d="M0 198L0 313L96 201Z" fill="#081a28" stroke="#081a28"></path><path d="M102 473L160 534L230 422Z" fill="#205a7a" stroke="#205a7a"></path><path d="M474 507L606 494L531 431Z" fill="#00101c" stroke="#00101c"></path><path d="M560 600L606 494L474 507Z" fill="#297ea6" stroke="#297ea6"></path><path d="M699 317L725 223L621 321Z" fill="#112e42" stroke="#112e42"></path><path d="M212 600L307 600L300 532Z" fill="#205a7a" stroke="#205a7a"></path><path d="M300 532L401 600L364 497Z" fill="#205a7a" stroke="#205a7a"></path><path d="M307 600L401 600L300 532Z" fill="#112e42" stroke="#112e42"></path><path d="M78 0L0 70L109 108Z" fill="#246688" stroke="#246688"></path><path d="M734 128L590 134L618 162Z" fill="#277297" stroke="#277297"></path><path d="M725 223L734 128L618 162Z" fill="#0c2435" stroke="#0c2435"></path><path d="M401 600L477 600L474 507Z" fill="#00101c" stroke="#00101c"></path><path d="M113 600L212 600L160 534Z" fill="#277297" stroke="#277297"></path><path d="M160 534L212 600L300 532Z" fill="#1d4e6b" stroke="#1d4e6b"></path><path d="M0 313L0 424L77 369Z" fill="#277297" stroke="#277297"></path><path d="M102 473L113 600L160 534Z" fill="#19435d" stroke="#19435d"></path><path d="M78 0L0 0L0 70Z" fill="#1d4e6b" stroke="#1d4e6b"></path><path d="M477 600L560 600L474 507Z" fill="#1d4e6b" stroke="#1d4e6b"></path><path d="M606 494L738 468L661 391Z" fill="#1d4e6b" stroke="#1d4e6b"></path><path d="M818 269L725 223L699 317Z" fill="#1d4e6b" stroke="#1d4e6b"></path><path d="M818 269L785 206L725 223Z" fill="#1d4e6b" stroke="#1d4e6b"></path><path d="M725 223L785 206L734 128Z" fill="#19435d" stroke="#19435d"></path><path d="M734 128L765 72L671 0Z" fill="#205a7a" stroke="#205a7a"></path><path d="M765 424L699 317L661 391Z" fill="#112e42" stroke="#112e42"></path><path d="M785 206L765 72L734 128Z" fill="#297ea6" stroke="#297ea6"></path><path d="M0 514L113 600L102 473Z" fill="#0c2435" stroke="#0c2435"></path><path d="M0 424L0 514L102 473Z" fill="#15384f" stroke="#15384f"></path><path d="M685 600L738 468L606 494Z" fill="#0c2435" stroke="#0c2435"></path><path d="M738 468L765 424L661 391Z" fill="#277297" stroke="#277297"></path><path d="M765 424L818 269L699 317Z" fill="#297ea6" stroke="#297ea6"></path><path d="M900 67L796 0L765 72Z" fill="#1d4e6b" stroke="#1d4e6b"></path><path d="M900 67L765 72L785 206Z" fill="#1d4e6b" stroke="#1d4e6b"></path><path d="M765 72L796 0L671 0Z" fill="#0c2435" stroke="#0c2435"></path><path d="M738 468L785 518L765 424Z" fill="#00101c" stroke="#00101c"></path><path d="M560 600L685 600L606 494Z" fill="#081a28" stroke="#081a28"></path><path d="M0 514L0 600L113 600Z" fill="#1d4e6b" stroke="#1d4e6b"></path><path d="M685 600L785 518L738 468Z" fill="#19435d" stroke="#19435d"></path><path d="M900 291L900 206L818 269Z" fill="#297ea6" stroke="#297ea6"></path><path d="M900 291L818 269L900 388Z" fill="#205a7a" stroke="#205a7a"></path><path d="M818 269L900 206L785 206Z" fill="#19435d" stroke="#19435d"></path><path d="M900 388L818 269L765 424Z" fill="#297ea6" stroke="#297ea6"></path><path d="M900 206L900 67L785 206Z" fill="#15384f" stroke="#15384f"></path><path d="M900 471L900 388L765 424Z" fill="#19435d" stroke="#19435d"></path><path d="M685 600L795 600L785 518Z" fill="#081a28" stroke="#081a28"></path><path d="M785 518L900 471L765 424Z" fill="#277297" stroke="#277297"></path><path d="M900 67L900 0L796 0Z" fill="#081a28" stroke="#081a28"></path><path d="M900 600L900 471L785 518Z" fill="#297ea6" stroke="#297ea6"></path><path d="M795 600L900 600L785 518Z" fill="#112e42" stroke="#112e42"></path></g></svg>