<svg id="visual" viewBox="0 0 900 600" width="900" height="600" xmlns="http://www.w3.org/2000/svg" xmlns:xlink="http://www.w3.org/1999/xlink" version="1.1"><g stroke-width="1" stroke-linejoin="bevel"><path d="M409 302L408 271L399 279Z" fill="#297ea6" stroke="#297ea6"></path><path d="M468 259L434 233L408 271Z" fill="#0c2435" stroke="#0c2435"></path><path d="M408 271L373 224L399 279Z" fill="#297ea6" stroke="#297ea6"></path><path d="M409 302L468 259L408 271Z" fill="#1d4e6b" stroke="#1d4e6b"></path><path d="M468 259L444 230L434 233Z" fill="#277297" stroke="#277297"></path><path d="M379 364L418 358L409 302Z" fill="#112e42" stroke="#112e42"></path><path d="M409 302L462 346L468 259Z" fill="#0c2435" stroke="#0c2435"></path><path d="M454 191L373 224L434 233Z" fill="#1d4e6b" stroke="#1d4e6b"></path><path d="M434 233L373 224L408 271Z" fill="#19435d" stroke="#19435d"></path><path d="M310 349L379 364L409 302Z" fill="#081a28" stroke="#081a28"></path><path d="M418 358L462 346L409 302Z" fill="#277297" stroke="#277297"></path><path d="M310 349L409 302L399 279Z" fill="#081a28" stroke="#081a28"></path><path d="M508 193L454 191L444 230Z" fill="#277297" stroke="#277297"></path><path d="M444 230L454 191L434 233Z" fill="#112e42" stroke="#112e42"></path><path d="M462 346L514 312L468 259Z" fill="#15384f" stroke="#15384f"></path><path d="M468 259L508 193L444 230Z" fill="#246688" stroke="#246688"></path><path d="M373 224L307 254L399 279Z" fill="#00101c" stroke="#00101c"></path><path d="M379 364L410 403L418 358Z" fill="#00101c" stroke="#00101c"></path><path d="M418 358L459 424L462 346Z" fill="#297ea6" stroke="#297ea6"></path><path d="M462 346L575 330L514 312Z" fill="#112e42" stroke="#112e42"></path><path d="M287 306L310 349L399 279Z" fill="#205a7a" stroke="#205a7a"></path><path d="M379 364L346 424L410 403Z" fill="#205a7a" stroke="#205a7a"></path><path d="M508 193L445 166L454 191Z" fill="#297ea6" stroke="#297ea6"></path><path d="M454 191L445 166L373 224Z" fill="#19435d" stroke="#19435d"></path><path d="M373 224L315 170L307 254Z" fill="#246688" stroke="#246688"></path><path d="M307 254L287 306L399 279Z" fill="#246688" stroke="#246688"></path><path d="M286 282L287 306L307 254Z" fill="#297ea6" stroke="#297ea6"></path><path d="M545 219L508 193L468 259Z" fill="#112e42" stroke="#112e42"></path><path d="M433 96L408 146L445 166Z" fill="#277297" stroke="#277297"></path><path d="M445 166L408 146L373 224Z" fill="#19435d" stroke="#19435d"></path><path d="M410 403L459 424L418 358Z" fill="#081a28" stroke="#081a28"></path><path d="M514 312L545 219L468 259Z" fill="#19435d" stroke="#19435d"></path><path d="M408 146L315 170L373 224Z" fill="#1d4e6b" stroke="#1d4e6b"></path><path d="M307 254L281 211L286 282Z" fill="#081a28" stroke="#081a28"></path><path d="M315 170L281 211L307 254Z" fill="#205a7a" stroke="#205a7a"></path><path d="M249 347L310 349L287 306Z" fill="#277297" stroke="#277297"></path><path d="M279 381L346 424L310 349Z" fill="#112e42" stroke="#112e42"></path><path d="M310 349L346 424L379 364Z" fill="#19435d" stroke="#19435d"></path><path d="M410 403L410 518L459 424Z" fill="#15384f" stroke="#15384f"></path><path d="M249 347L287 306L286 282Z" fill="#00101c" stroke="#00101c"></path><path d="M249 347L279 381L310 349Z" fill="#19435d" stroke="#19435d"></path><path d="M555 195L529 169L508 193Z" fill="#1d4e6b" stroke="#1d4e6b"></path><path d="M508 193L529 169L445 166Z" fill="#081a28" stroke="#081a28"></path><path d="M459 424L575 330L462 346Z" fill="#1d4e6b" stroke="#1d4e6b"></path><path d="M514 312L575 330L545 219Z" fill="#00101c" stroke="#00101c"></path><path d="M626 218L555 195L545 219Z" fill="#15384f" stroke="#15384f"></path><path d="M545 219L555 195L508 193Z" fill="#00101c" stroke="#00101c"></path><path d="M187 319L249 347L286 282Z" fill="#15384f" stroke="#15384f"></path><path d="M261 412L338 447L346 424Z" fill="#1d4e6b" stroke="#1d4e6b"></path><path d="M346 424L371 500L410 403Z" fill="#00101c" stroke="#00101c"></path><path d="M506 108L433 96L445 166Z" fill="#297ea6" stroke="#297ea6"></path><path d="M408 146L329 89L315 170Z" fill="#277297" stroke="#277297"></path><path d="M249 347L261 412L279 381Z" fill="#246688" stroke="#246688"></path><path d="M279 381L261 412L346 424Z" fill="#0c2435" stroke="#0c2435"></path><path d="M578 107L506 108L529 169Z" fill="#081a28" stroke="#081a28"></path><path d="M529 169L506 108L445 166Z" fill="#15384f" stroke="#15384f"></path><path d="M575 330L614 256L545 219Z" fill="#297ea6" stroke="#297ea6"></path><path d="M555 195L578 107L529 169Z" fill="#0c2435" stroke="#0c2435"></path><path d="M617 384L614 317L575 330Z" fill="#205a7a" stroke="#205a7a"></path><path d="M575 330L614 317L614 256Z" fill="#15384f" stroke="#15384f"></path><path d="M261 412L337 482L338 447Z" fill="#205a7a" stroke="#205a7a"></path><path d="M338 447L371 500L346 424Z" fill="#1d4e6b" stroke="#1d4e6b"></path><path d="M410 518L510 476L459 424Z" fill="#112e42" stroke="#112e42"></path><path d="M459 424L578 458L575 330Z" fill="#112e42" stroke="#112e42"></path><path d="M433 96L329 89L408 146Z" fill="#19435d" stroke="#19435d"></path><path d="M315 170L269 117L281 211Z" fill="#19435d" stroke="#19435d"></path><path d="M337 482L371 500L338 447Z" fill="#15384f" stroke="#15384f"></path><path d="M614 317L632 269L614 256Z" fill="#246688" stroke="#246688"></path><path d="M614 256L626 218L545 219Z" fill="#1d4e6b" stroke="#1d4e6b"></path><path d="M329 89L269 117L315 170Z" fill="#19435d" stroke="#19435d"></path><path d="M185 225L187 319L286 282Z" fill="#081a28" stroke="#081a28"></path><path d="M632 269L626 218L614 256Z" fill="#081a28" stroke="#081a28"></path><path d="M578 458L617 384L575 330Z" fill="#246688" stroke="#246688"></path><path d="M733 341L671 238L632 269Z" fill="#1d4e6b" stroke="#1d4e6b"></path><path d="M185 225L286 282L281 211Z" fill="#112e42" stroke="#112e42"></path><path d="M249 347L211 430L261 412Z" fill="#297ea6" stroke="#297ea6"></path><path d="M371 500L410 518L410 403Z" fill="#277297" stroke="#277297"></path><path d="M433 96L340 62L329 89Z" fill="#246688" stroke="#246688"></path><path d="M329 89L242 86L269 117Z" fill="#246688" stroke="#246688"></path><path d="M440 49L340 62L433 96Z" fill="#297ea6" stroke="#297ea6"></path><path d="M188 206L185 225L281 211Z" fill="#15384f" stroke="#15384f"></path><path d="M510 476L578 458L459 424Z" fill="#297ea6" stroke="#297ea6"></path><path d="M574 494L578 458L510 476Z" fill="#297ea6" stroke="#297ea6"></path><path d="M371 500L382 523L410 518Z" fill="#1d4e6b" stroke="#1d4e6b"></path><path d="M337 482L382 523L371 500Z" fill="#246688" stroke="#246688"></path><path d="M506 108L440 49L433 96Z" fill="#00101c" stroke="#00101c"></path><path d="M269 117L188 206L281 211Z" fill="#246688" stroke="#246688"></path><path d="M578 458L586 454L617 384Z" fill="#15384f" stroke="#15384f"></path><path d="M626 218L578 107L555 195Z" fill="#205a7a" stroke="#205a7a"></path><path d="M502 0L442 12L440 49Z" fill="#00101c" stroke="#00101c"></path><path d="M586 454L632 394L617 384Z" fill="#00101c" stroke="#00101c"></path><path d="M617 384L676 373L614 317Z" fill="#205a7a" stroke="#205a7a"></path><path d="M382 523L412 532L410 518Z" fill="#112e42" stroke="#112e42"></path><path d="M410 518L492 526L510 476Z" fill="#277297" stroke="#277297"></path><path d="M187 319L211 430L249 347Z" fill="#19435d" stroke="#19435d"></path><path d="M261 412L251 519L337 482Z" fill="#19435d" stroke="#19435d"></path><path d="M337 482L337 600L382 523Z" fill="#081a28" stroke="#081a28"></path><path d="M450 560L492 526L410 518Z" fill="#0c2435" stroke="#0c2435"></path><path d="M578 458L574 494L586 454Z" fill="#112e42" stroke="#112e42"></path><path d="M632 269L671 238L626 218Z" fill="#15384f" stroke="#15384f"></path><path d="M626 218L677 139L578 107Z" fill="#19435d" stroke="#19435d"></path><path d="M676 373L632 269L614 317Z" fill="#246688" stroke="#246688"></path><path d="M699 438L676 373L632 394Z" fill="#15384f" stroke="#15384f"></path><path d="M492 526L574 494L510 476Z" fill="#205a7a" stroke="#205a7a"></path><path d="M128 157L159 218L188 206Z" fill="#205a7a" stroke="#205a7a"></path><path d="M188 206L159 218L185 225Z" fill="#112e42" stroke="#112e42"></path><path d="M185 225L139 311L187 319Z" fill="#297ea6" stroke="#297ea6"></path><path d="M155 438L200 455L211 430Z" fill="#277297" stroke="#277297"></path><path d="M340 62L242 86L329 89Z" fill="#277297" stroke="#277297"></path><path d="M269 117L242 86L188 206Z" fill="#19435d" stroke="#19435d"></path><path d="M129 342L211 430L187 319Z" fill="#00101c" stroke="#00101c"></path><path d="M211 430L200 455L261 412Z" fill="#297ea6" stroke="#297ea6"></path><path d="M349 0L332 24L340 62Z" fill="#205a7a" stroke="#205a7a"></path><path d="M340 62L332 24L242 86Z" fill="#19435d" stroke="#19435d"></path><path d="M159 218L139 311L185 225Z" fill="#112e42" stroke="#112e42"></path><path d="M502 0L440 49L506 108Z" fill="#297ea6" stroke="#297ea6"></path><path d="M440 49L349 0L340 62Z" fill="#19435d" stroke="#19435d"></path><path d="M380 600L450 560L412 532Z" fill="#15384f" stroke="#15384f"></path><path d="M412 532L450 560L410 518Z" fill="#0c2435" stroke="#0c2435"></path><path d="M550 566L612 520L574 494Z" fill="#112e42" stroke="#112e42"></path><path d="M380 600L412 532L382 523Z" fill="#15384f" stroke="#15384f"></path><path d="M651 462L632 394L586 454Z" fill="#19435d" stroke="#19435d"></path><path d="M632 394L676 373L617 384Z" fill="#112e42" stroke="#112e42"></path><path d="M200 455L251 519L261 412Z" fill="#081a28" stroke="#081a28"></path><path d="M502 0L437 0L442 12Z" fill="#205a7a" stroke="#205a7a"></path><path d="M442 12L349 0L440 49Z" fill="#0c2435" stroke="#0c2435"></path><path d="M640 86L574 45L578 107Z" fill="#0c2435" stroke="#0c2435"></path><path d="M578 107L574 45L506 108Z" fill="#15384f" stroke="#15384f"></path><path d="M91 332L129 342L139 311Z" fill="#112e42" stroke="#112e42"></path><path d="M139 311L129 342L187 319Z" fill="#19435d" stroke="#19435d"></path><path d="M757 258L693 203L671 238Z" fill="#19435d" stroke="#19435d"></path><path d="M671 238L693 203L626 218Z" fill="#081a28" stroke="#081a28"></path><path d="M437 0L349 0L442 12Z" fill="#112e42" stroke="#112e42"></path><path d="M197 32L213 72L229 0Z" fill="#00101c" stroke="#00101c"></path><path d="M213 72L242 86L229 0Z" fill="#15384f" stroke="#15384f"></path><path d="M242 86L134 149L188 206Z" fill="#277297" stroke="#277297"></path><path d="M349 0L347 0L332 24Z" fill="#277297" stroke="#277297"></path><path d="M612 520L586 454L574 494Z" fill="#205a7a" stroke="#205a7a"></path><path d="M652 494L651 462L586 454Z" fill="#081a28" stroke="#081a28"></path><path d="M527 0L502 0L506 108Z" fill="#1d4e6b" stroke="#1d4e6b"></path><path d="M129 342L155 438L211 430Z" fill="#15384f" stroke="#15384f"></path><path d="M200 455L183 537L251 519Z" fill="#19435d" stroke="#19435d"></path><path d="M693 203L677 139L626 218Z" fill="#277297" stroke="#277297"></path><path d="M677 139L640 86L578 107Z" fill="#081a28" stroke="#081a28"></path><path d="M574 45L527 0L506 108Z" fill="#246688" stroke="#246688"></path><path d="M550 566L574 494L492 526Z" fill="#205a7a" stroke="#205a7a"></path><path d="M556 0L527 0L574 45Z" fill="#081a28" stroke="#081a28"></path><path d="M528 600L550 566L492 526Z" fill="#081a28" stroke="#081a28"></path><path d="M213 72L134 149L242 86Z" fill="#19435d" stroke="#19435d"></path><path d="M159 218L100 239L139 311Z" fill="#205a7a" stroke="#205a7a"></path><path d="M134 149L128 157L188 206Z" fill="#00101c" stroke="#00101c"></path><path d="M337 600L380 600L382 523Z" fill="#19435d" stroke="#19435d"></path><path d="M450 560L528 600L492 526Z" fill="#1d4e6b" stroke="#1d4e6b"></path><path d="M645 600L652 494L612 520Z" fill="#19435d" stroke="#19435d"></path><path d="M612 520L652 494L586 454Z" fill="#1d4e6b" stroke="#1d4e6b"></path><path d="M651 462L699 438L632 394Z" fill="#19435d" stroke="#19435d"></path><path d="M677 139L670 100L640 86Z" fill="#1d4e6b" stroke="#1d4e6b"></path><path d="M611 31L556 0L574 45Z" fill="#00101c" stroke="#00101c"></path><path d="M666 69L733 35L682 41Z" fill="#15384f" stroke="#15384f"></path><path d="M128 157L100 239L159 218Z" fill="#246688" stroke="#246688"></path><path d="M111 410L129 446L155 438Z" fill="#1d4e6b" stroke="#1d4e6b"></path><path d="M611 31L574 45L640 86Z" fill="#00101c" stroke="#00101c"></path><path d="M666 69L611 31L640 86Z" fill="#19435d" stroke="#19435d"></path><path d="M256 600L337 600L251 519Z" fill="#00101c" stroke="#00101c"></path><path d="M251 519L337 600L337 482Z" fill="#00101c" stroke="#00101c"></path><path d="M652 494L699 438L651 462Z" fill="#15384f" stroke="#15384f"></path><path d="M676 373L733 341L632 269Z" fill="#297ea6" stroke="#297ea6"></path><path d="M727 435L733 341L676 373Z" fill="#15384f" stroke="#15384f"></path><path d="M721 154L670 100L677 139Z" fill="#277297" stroke="#277297"></path><path d="M100 239L91 332L139 311Z" fill="#19435d" stroke="#19435d"></path><path d="M111 410L155 438L129 342Z" fill="#205a7a" stroke="#205a7a"></path><path d="M155 438L183 537L200 455Z" fill="#1d4e6b" stroke="#1d4e6b"></path><path d="M81 352L111 410L129 342Z" fill="#19435d" stroke="#19435d"></path><path d="M721 154L677 139L693 203Z" fill="#112e42" stroke="#112e42"></path><path d="M670 100L666 69L640 86Z" fill="#277297" stroke="#277297"></path><path d="M380 600L528 600L450 560Z" fill="#081a28" stroke="#081a28"></path><path d="M550 566L572 600L612 520Z" fill="#205a7a" stroke="#205a7a"></path><path d="M134 149L74 110L128 157Z" fill="#205a7a" stroke="#205a7a"></path><path d="M213 72L153 41L134 149Z" fill="#277297" stroke="#277297"></path><path d="M229 0L242 86L332 24Z" fill="#246688" stroke="#246688"></path><path d="M791 191L721 154L693 203Z" fill="#297ea6" stroke="#297ea6"></path><path d="M11 345L81 352L91 332Z" fill="#297ea6" stroke="#297ea6"></path><path d="M91 332L81 352L129 342Z" fill="#246688" stroke="#246688"></path><path d="M111 410L106 455L129 446Z" fill="#1d4e6b" stroke="#1d4e6b"></path><path d="M129 446L183 537L155 438Z" fill="#0c2435" stroke="#0c2435"></path><path d="M347 0L229 0L332 24Z" fill="#00101c" stroke="#00101c"></path><path d="M733 341L757 258L671 238Z" fill="#277297" stroke="#277297"></path><path d="M183 537L213 568L251 519Z" fill="#246688" stroke="#246688"></path><path d="M739 518L727 435L699 438Z" fill="#081a28" stroke="#081a28"></path><path d="M699 438L727 435L676 373Z" fill="#15384f" stroke="#15384f"></path><path d="M733 341L846 333L757 258Z" fill="#112e42" stroke="#112e42"></path><path d="M739 518L699 438L652 494Z" fill="#0c2435" stroke="#0c2435"></path><path d="M129 446L106 455L183 537Z" fill="#1d4e6b" stroke="#1d4e6b"></path><path d="M23 464L106 455L111 410Z" fill="#246688" stroke="#246688"></path><path d="M213 568L256 600L251 519Z" fill="#277297" stroke="#277297"></path><path d="M528 600L572 600L550 566Z" fill="#00101c" stroke="#00101c"></path><path d="M176 0L153 41L197 32Z" fill="#15384f" stroke="#15384f"></path><path d="M197 32L153 41L213 72Z" fill="#0c2435" stroke="#0c2435"></path><path d="M128 157L41 165L100 239Z" fill="#112e42" stroke="#112e42"></path><path d="M165 600L241 600L213 568Z" fill="#1d4e6b" stroke="#1d4e6b"></path><path d="M213 568L241 600L256 600Z" fill="#19435d" stroke="#19435d"></path><path d="M166 586L213 568L183 537Z" fill="#15384f" stroke="#15384f"></path><path d="M733 35L670 100L721 154Z" fill="#205a7a" stroke="#205a7a"></path><path d="M733 35L666 69L670 100Z" fill="#246688" stroke="#246688"></path><path d="M666 69L682 41L611 31Z" fill="#19435d" stroke="#19435d"></path><path d="M611 31L684 0L556 0Z" fill="#246688" stroke="#246688"></path><path d="M229 0L176 0L197 32Z" fill="#1d4e6b" stroke="#1d4e6b"></path><path d="M93 0L74 110L153 41Z" fill="#081a28" stroke="#081a28"></path><path d="M153 41L74 110L134 149Z" fill="#277297" stroke="#277297"></path><path d="M0 323L11 345L91 332Z" fill="#246688" stroke="#246688"></path><path d="M139 600L166 586L183 537Z" fill="#277297" stroke="#277297"></path><path d="M856 282L791 191L757 258Z" fill="#1d4e6b" stroke="#1d4e6b"></path><path d="M757 258L791 191L693 203Z" fill="#246688" stroke="#246688"></path><path d="M572 600L645 600L612 520Z" fill="#297ea6" stroke="#297ea6"></path><path d="M790 512L786 407L727 435Z" fill="#0c2435" stroke="#0c2435"></path><path d="M727 435L786 407L733 341Z" fill="#15384f" stroke="#15384f"></path><path d="M74 110L41 165L128 157Z" fill="#19435d" stroke="#19435d"></path><path d="M710 0L684 0L682 41Z" fill="#205a7a" stroke="#205a7a"></path><path d="M682 41L684 0L611 31Z" fill="#081a28" stroke="#081a28"></path><path d="M735 558L739 518L652 494Z" fill="#112e42" stroke="#112e42"></path><path d="M139 600L165 600L166 586Z" fill="#112e42" stroke="#112e42"></path><path d="M166 586L165 600L213 568Z" fill="#081a28" stroke="#081a28"></path><path d="M813 123L733 35L721 154Z" fill="#277297" stroke="#277297"></path><path d="M0 260L91 332L100 239Z" fill="#0c2435" stroke="#0c2435"></path><path d="M0 417L23 464L111 410Z" fill="#205a7a" stroke="#205a7a"></path><path d="M104 600L139 600L183 537Z" fill="#00101c" stroke="#00101c"></path><path d="M645 600L677 600L652 494Z" fill="#205a7a" stroke="#205a7a"></path><path d="M733 35L710 0L682 41Z" fill="#00101c" stroke="#00101c"></path><path d="M677 600L735 558L652 494Z" fill="#1d4e6b" stroke="#1d4e6b"></path><path d="M866 221L810 166L791 191Z" fill="#277297" stroke="#277297"></path><path d="M791 191L810 166L721 154Z" fill="#081a28" stroke="#081a28"></path><path d="M0 242L0 260L100 239Z" fill="#112e42" stroke="#112e42"></path><path d="M0 260L0 323L91 332Z" fill="#19435d" stroke="#19435d"></path><path d="M41 165L0 242L100 239Z" fill="#112e42" stroke="#112e42"></path><path d="M104 600L183 537L106 455Z" fill="#205a7a" stroke="#205a7a"></path><path d="M684 600L735 558L677 600Z" fill="#205a7a" stroke="#205a7a"></path><path d="M739 518L790 512L727 435Z" fill="#205a7a" stroke="#205a7a"></path><path d="M0 141L0 185L41 165Z" fill="#1d4e6b" stroke="#1d4e6b"></path><path d="M41 165L0 185L0 242Z" fill="#297ea6" stroke="#297ea6"></path><path d="M0 141L41 165L74 110Z" fill="#277297" stroke="#277297"></path><path d="M0 417L111 410L81 352Z" fill="#297ea6" stroke="#297ea6"></path><path d="M0 417L81 352L11 345Z" fill="#19435d" stroke="#19435d"></path><path d="M176 0L93 0L153 41Z" fill="#0c2435" stroke="#0c2435"></path><path d="M810 166L813 123L721 154Z" fill="#0c2435" stroke="#0c2435"></path><path d="M733 35L793 0L710 0Z" fill="#0c2435" stroke="#0c2435"></path><path d="M0 323L0 417L11 345Z" fill="#205a7a" stroke="#205a7a"></path><path d="M93 0L37 69L74 110Z" fill="#112e42" stroke="#112e42"></path><path d="M900 422L846 333L786 407Z" fill="#081a28" stroke="#081a28"></path><path d="M786 407L846 333L733 341Z" fill="#246688" stroke="#246688"></path><path d="M900 143L863 97L813 123Z" fill="#112e42" stroke="#112e42"></path><path d="M37 69L0 141L74 110Z" fill="#0c2435" stroke="#0c2435"></path><path d="M735 558L790 512L739 518Z" fill="#00101c" stroke="#00101c"></path><path d="M29 549L104 600L106 455Z" fill="#112e42" stroke="#112e42"></path><path d="M846 333L856 282L757 258Z" fill="#297ea6" stroke="#297ea6"></path><path d="M900 335L857 315L846 333Z" fill="#00101c" stroke="#00101c"></path><path d="M846 333L857 315L856 282Z" fill="#081a28" stroke="#081a28"></path><path d="M790 512L829 469L786 407Z" fill="#0c2435" stroke="#0c2435"></path><path d="M900 212L866 221L856 282Z" fill="#246688" stroke="#246688"></path><path d="M856 282L866 221L791 191Z" fill="#1d4e6b" stroke="#1d4e6b"></path><path d="M0 417L0 488L23 464Z" fill="#277297" stroke="#277297"></path><path d="M23 464L29 549L106 455Z" fill="#19435d" stroke="#19435d"></path><path d="M0 516L29 549L23 464Z" fill="#112e42" stroke="#112e42"></path><path d="M0 488L0 516L23 464Z" fill="#19435d" stroke="#19435d"></path><path d="M828 0L793 0L813 123Z" fill="#297ea6" stroke="#297ea6"></path><path d="M813 123L793 0L733 35Z" fill="#277297" stroke="#277297"></path><path d="M829 600L844 500L790 512Z" fill="#15384f" stroke="#15384f"></path><path d="M790 512L844 500L829 469Z" fill="#1d4e6b" stroke="#1d4e6b"></path><path d="M829 469L871 456L786 407Z" fill="#277297" stroke="#277297"></path><path d="M857 315L900 335L856 282Z" fill="#19435d" stroke="#19435d"></path><path d="M829 600L790 512L735 558Z" fill="#0c2435" stroke="#0c2435"></path><path d="M900 143L813 123L810 166Z" fill="#246688" stroke="#246688"></path><path d="M844 500L871 456L829 469Z" fill="#205a7a" stroke="#205a7a"></path><path d="M900 353L900 335L846 333Z" fill="#205a7a" stroke="#205a7a"></path><path d="M866 221L900 143L810 166Z" fill="#297ea6" stroke="#297ea6"></path><path d="M11 0L0 22L37 69Z" fill="#246688" stroke="#246688"></path><path d="M37 69L0 22L0 141Z" fill="#112e42" stroke="#112e42"></path><path d="M900 422L900 353L846 333Z" fill="#112e42" stroke="#112e42"></path><path d="M900 335L900 212L856 282Z" fill="#246688" stroke="#246688"></path><path d="M93 0L11 0L37 69Z" fill="#19435d" stroke="#19435d"></path><path d="M11 0L0 0L0 22Z" fill="#081a28" stroke="#081a28"></path><path d="M863 97L828 0L813 123Z" fill="#19435d" stroke="#19435d"></path><path d="M900 455L900 422L871 456Z" fill="#081a28" stroke="#081a28"></path><path d="M871 456L900 422L786 407Z" fill="#277297" stroke="#277297"></path><path d="M900 212L900 143L866 221Z" fill="#205a7a" stroke="#205a7a"></path><path d="M863 97L871 32L828 0Z" fill="#0c2435" stroke="#0c2435"></path><path d="M890 536L900 455L871 456Z" fill="#112e42" stroke="#112e42"></path><path d="M0 516L0 600L29 549Z" fill="#1d4e6b" stroke="#1d4e6b"></path><path d="M29 549L0 600L104 600Z" fill="#00101c" stroke="#00101c"></path><path d="M684 600L829 600L735 558Z" fill="#112e42" stroke="#112e42"></path><path d="M844 500L890 536L871 456Z" fill="#297ea6" stroke="#297ea6"></path><path d="M900 143L900 97L863 97Z" fill="#081a28" stroke="#081a28"></path><path d="M900 72L871 32L863 97Z" fill="#277297" stroke="#277297"></path><path d="M829 600L836 600L844 500Z" fill="#19435d" stroke="#19435d"></path><path d="M900 97L900 72L863 97Z" fill="#19435d" stroke="#19435d"></path><path d="M836 600L890 536L844 500Z" fill="#00101c" stroke="#00101c"></path><path d="M836 600L900 569L890 536Z" fill="#1d4e6b" stroke="#1d4e6b"></path><path d="M890 536L900 569L900 455Z" fill="#0c2435" stroke="#0c2435"></path><path d="M900 72L900 0L871 32Z" fill="#246688" stroke="#246688"></path><path d="M871 32L900 0L828 0Z" fill="#1d4e6b" stroke="#1d4e6b"></path><path d="M836 600L900 600L900 569Z" fill="#1d4e6b" stroke="#1d4e6b"></path></g></svg>